<?xml version="1.0" encoding="UTF-8"?>
<svg version="1.1" viewBox="0 0 1024 1536" width="1024" height="1536" xmlns="http://www.w3.org/2000/svg">
<path transform="translate(496,438)" d="m0 0h32l22 2 30 5 25 7 16 6 24 11 17 10 16 11 11 9 10 9 20 20 11 14 9 13 9 15 7 12 5 12 4 8 8 25 5 23 3 17 2 22v32l-3 12-6 5-2 1h-10l-16-7-15-8-20-8-17-5-18-3h-37l-25 5-29 9-26 6-22 3-12 1h-24l-21-2-24-4-22-6-23-7-13-3-16-2h-25l-11 1-10 2-19 5-13 5-19 10-15 7-8 2-8-1-6-5-3-7-1-9v-21l3-29 4-23 6-22 6-17 8-18 12-23 16-24h2l1-4 5-5 11-13 14-14 11-9 3-1v-2l13-9 14-9 16-9 13-6 17-7 24-7 24-5z" fill="#217DF2"/>
<path transform="translate(461,442)" d="m0 0 4 1 5 1 1 2h4v2l-3 2 2 6h-2v11l-2 5 2 1-3 3 1 6-4 4 2 3-1 2h2l-1 7-3 9v5h-2l1 7v3 3l-3 5 1 3-2 5 1 4-2 4h3v2l-2 2-2 3 3 5-1 5h-3l3 3-2 2 1 4-3 1 1 2-2 2 3 4-3 4 1 2-1 1 3 1-2 7-5 4 3 4v2l-3 3 3 1-1 3 3 3-3 3v3l4-1-1 2h-2l1 3h-2l-1 3 2 4-3 2 3 3-1 5-3 1 1 2-2 2 4 3-1 3v-2h-2l1 3-2 2 2 2-2 2 1 3 2 2-4 1v3l2 1-2 3v3 2l-3 3v3 2h-2v2l3 1-1 4 3 2-2 4-3 3 5 1-1 2 3 2-2 2v4l-3 1-1 2 4-1-5 5-3-3h-5l3 1-1 2-27-8-13-3-16-2h-25l-11 1-10 2-19 5-13 5-19 10-15 7-8 2-8-1-6-5-3-7-1-9v-21l3-29 4-23 6-22 6-17 8-18 12-23 16-24h2l1-4 5-5 11-13 14-14 11-9 3-1v-2l13-9 14-9 16-9 13-6 17-7 24-7z" fill="#2A6AF2"/>
<path transform="translate(619,460)" d="m0 0 11 2 17 8 23 14 13 10 13 11 23 23 11 14 9 13 9 15 7 12 5 12 4 8 8 25 5 23 3 17 2 22v32l-3 12-6 5-2 1h-10l-16-7-15-8-20-8-17-5-18-3h-37l-25 5-8 1-10 2 4-3h2v-3l-4-1v-2h3l-2-4-3 1 1-4 2-3-1-3 1-2-2-1-1-4 4 1v-2l-4-1 2-1v-3l-2-1 3-2v-3-3l-1-5v-3l-2-4 2-1v-2l-3-1h2l-1-3 2-1-2-5 4-3-1-1 1-4h-2l-1-3 5-5-1-2 2-4h-2v-2l-2-1 2-4v-2l-2-2 3-1-1-2 1-1v-4l-1-2 2-1v-2h2l-1-3 1-1-2-2 2-1 1-3-3-1 1-1-2-1 1-2 1-4-2-3v-2l1-3h2l-2-2v-4l2-1-3-5 1-2h3l-3-3 2-3 1-4h2l-1-4 2-8-5-1 2-4 7-2-1-4-4 2v-7h2l-1-4 3-6 2-5v-9l-2 1v-3h2v-3h2l-1-1-1-4 4-5-2-3h2l1-3v2h3l-3-4 1-4v-2l3-1-3-3z" fill="#17AFFB"/>
<path transform="translate(375,473)" d="m0 0 2 1-7 5 4 1 1 2h-3v2l3 1v3l2 2h-3l1 3-3 2-3 6 5 5-1 4-4 2 1 2-3 3 5 4h-3l-2 4 2 1 1 1 2 1 1 3h-4l2 2h-3l2 4 3 1-2 2-3 1 1 5h-3l4 2h-2v2l2 1-5 7h3l-2 2-3 1 4 4-3 3 2 1-3 1 2 5h-3l2 6-2 3-1-2v5 3l4 2-2 1v4l-5-1-2 3 3 1v6l1 3-1 3h-2l2 6h2v-3l-1-2 3-1v2h2l-1 6 1 4h-2l-1 2h-2l1 3-3 1 2 1-1 6 3 1-2 1-1 6-1 3 2 1 1 4h-3l2 2-1 7 3 1-4 3v3l-2 1v2h2l1 4v3l1 5 2 1v4l2 3 1 4 3 1 1 1v5l-1 1 27 3 17 4-2 2-13-3-16-2h-25l-11 1-10 2-19 5-13 5-19 10-15 7-8 2-8-1-6-5-3-7-1-9v-21l3-29 4-23 6-22 6-17 8-18 12-23 16-24h2l1-4 5-5 11-13 14-14 11-9 3-1v-2l13-9 14-9z" fill="#3F5EF8"/>
<path transform="translate(559,443)" d="m0 0h11l22 5 27 9 9 4-3 1-6-2 1 5h2l1 3-2 2v1l-1 3v2l1 3-4 1-1 1 3 2-5 5v4h2l1 3h-2v-2h-2v3l-1 1 2 1v11l-2 1-1 4v3l-2 2 1 5-1-2-1 5h3l1 4-7 3v2l4 2-3 15-3 4 3 3-1 2h-3l2 5-1 3 3 4-4 2v3l2 4v4l-3 1 4 1-2 1 2 1-1 5v3 2h-2v2l2 1h-4l2 1v2l2 1h-3v2h2l-1 2 1 2-2 2-1 5v4h2l-1 4v3l-4 5v2l3-1-1 4h2v2l-3 3v2h-2l2 4-2 1 1 1h1l1 6h-3l3 3-1 4 1 4v2l2 1-3 2v3l-1 4-1 1 3 1v2l-4-1 3 5 1 7-3 3 4 1v4h-3l1 2 3 1v3l-3 2 11-3 2 2-35 10-24 5-11 1-9-1 4-2v-1l-2-1 5-2 3 3v-3l-3-6-4-1v-5h3l1 3 2 1-1-4-2-2 1-3-1-2h2v-6l-2-4 2-3h-3l-1-5h2v-2h2l1-4-3-1 1-5 2-1-2-3-2-1 1-9 3-5-2-1v-10l-1-2 2-2-1-4-2-1h2l-1-3 3-1-3-4 3-1h-1v-6h-3l1-3h2l1-12h2v-2l-3-1 3-2v-6l-1-6 2-4 1-1-1-3-2-4 5-5-2-5 1-1v-4l1-3 1-4h2v-5l-3 1 1-4 3 2-1-6 3-6-3 1-1-4 1-3-1-4 4-2h-3v-7h3v-2l-2-1 3-2-3-9 1-2 2 1v-2l-2-1 2-5-2-1 3-3-1-3 2-1-1-2h2l1-7v-4-3l1-5 2-9h2l-3-9zm-24 274 2 1-4 3z" fill="#1999F5"/>
<path transform="translate(706,518)" d="m0 0 5 4 5 3 11 13 12 17 9 15 7 12 5 12 4 8 8 25 5 23 3 17 2 22v32l-3 12-6 5-2 1h-10l-16-7-15-8-20-8-17-5v-3l3-2 1-3-2-1v-2h2l-1-4h-2v-5l3-1v-3h2l-1-5h2l-1-4-3-2h4l2-5-3-1 2-1-2-2-1-5 3-5v-2l1-1h-2v2h-2l-1-3 3-3-3-7 1-2h2l1-3h3l1-2-2-2 2-4-2 1-3 5-1-3-2-1 3-5-2-2 1-3 3-1 2-3-2-1-1-4h3l1-2-4 1-1-5 1-2 2-7 3-2-1-4 1-2-4 1-2-2 1-5 5-1-1-4 2-1-3-2 1-3 1-1-1-2h-3l-1 2-1-5 2-4 1-5 1 2h2l-1-4 3-3v-2l-3-2 2-1h-2l1-5 1-1-1-4 2-1-1-9 1-3h2v-2l-5 1v-4z" fill="#18CAFD"/>
<path transform="translate(527,440)" d="m0 0 20 1 12 2 4 9v4h-2l1 3-3 9 1 5-2 1 1 5-3 8h-2v2l2 1-3 3v4l-1 2 3 1-1 2-1 1-1 2 2 2 1 5-3 2 1 3-2 2v4l3 1v2h-4l1 5-1 5h3l-2 7 2 2h-2v3l-3-1v2h2l1 3-3 7-1 3h-2l3 3-1 2 1 4-2 1-2 4v3l2 1v2 2l-2 1-1 7 1 7 1 2-2 2v2h-2l1 3-2 9h-2v3h3v5 3l-1 1h2l-2 4-1 3 2 5-2 2 1 5v6l1 4-2 2-1 9 2-1v2l2 1v3h-3l1 3h-2l3 3-1 4h-2v2h-2l2 2 3 2-2 5 2 4-2 6 1 2-1 2 2 2v4l-5-2-1 3 6 2 3 6h-2v2l-4-2-1 1 1 2-2 1 5 1v1l-9 1-37-1 1-2h10l-1-3-6-6v-1-2l3-1v-3l2-6 2-1v-2l-4-2 2-5v-1l-2-1 2-5v-3h-2l2-5v-2h2l-2-6v-3h2l-1-9 2-7v-3-5l-2-1 4-2-1-3-2-1v-3l-2 3-3-3 4-1v-5l3-1 1-2h-2v-8l1-5-3-1 1-4 2-1-1-4v-4-3h3l-2-6v-5h2v-2h-2v-4h2l1-2-1-1-1-4v-13l2 2 1-2-3-2h2l1-3-1-1 2-4 1-4h-3l1-3 2-1v-3l-6-1v-1l9-2 2-6h-2l-2-6 2-1 3-11-2-1v-2h2l-2-4 2-1v-3l-1-1-1-5 2-1-2-1 2-3-2-2 4-4-3-1 2-2 2-1-1-7v-2l-3-3 3-4h4l-2-10h2v-4h2zm8 277-2 4 4-4z" fill="#2088F5"/>
<path transform="translate(675,491)" d="m0 0 7 2 14 12 17 17h-3l-3-2v3h3v2h-2v2l2 1-2 1v8 3 3h-2l-1 5h2l1-3 1 3v3l-1 3-2 4v2l-3 1-2 10 4-1 1-2 2 6h-3l2 4 3 1-3 2-1 2h-3l-1 5v2h4v2l2 2-3 4h-2l1 4-3 5 1 2h-2l2 2h3l-1 3h-2l2 3v3l-2 5-1-3h-2l1 4 1 2h-2l1 3-2 1 3 1 4-4v4l1 4-6 4h-2l1 4 2 6-3 3v2h2v-2l4-1-3 5v3l-2 2 1 4 2 2-1 5-2 3 1 5-1 5h-2v3l-2 2-1 4h2l1 7v5l-2 2h-7l-13-2-26-1-4-3 6-2-1-5 4-1 5-7 1-3-2-2-6 1v-2l-2-1h3l-4-2 6-7h3l-2-2 1-4v-1-4l3 1 2-5-6 1-1-5 5-1 2 1v-3l-3-1h3l-1-3 5 1 3-1-7-1v-3l-2-4 1-4 1-1-2-1v2l-5-1 1-2h2v-5l4-1 1-3-6-6h2l1-3 1 1 2-2 1 1-3-5 2-2-2-2-2-5 2-3 2-2 4-1-4-1v-2l-2-2 1-3-3-1 2-1 1-9h2l1 4 2-2 1-2-4-2-1-5 1-2h1v-3l-3-1 4-1v-3l2-5-1-7-1 1-2-2 5-1-6-2 4-3h5v-2l-6 1-2-1v-2l2-1 2-4 1-5-3-1-3 2-1-2 5-5 2 2v-2l-5-5 4-2 2-2 4 4 1-3v-2l-5-1v-3l3-2v-2l-3-1-1-4z" fill="#16BEFC"/>
<path transform="translate(428,764)" d="m0 0h10l4 2 4 9v58l-1 19-3 19-6 18-9 17-8 12-14 18-10 16-8 16-5 18v23l3 12 9 11 2 8-1 10-6 9-7 4-4 1h-7l-7-3-8-7-2-5v-14l3-7v-13l-1-11v-15l3-17 5-15 10-21 8-12 8-11 6-8 9-13 8-14 4-11 3-16 1-16v-64l5-6z" fill="#277CF2"/>
<path transform="translate(510,770)" d="m0 0 9 1 5 5 2 4v261h2l5 7 1 3v13l-3 6-4 5-8 4-9 1-9-3-5-4-4-6-2-6v-8l4-9 6-5v-256l2-7 4-4z" fill="#2289F5"/>
<path transform="translate(591,763)" d="m0 0 8 1 4 4 1 2v64l2 21 4 16 8 16 10 15 4 5 9 12 6 9 8 13 9 21 4 16 1 7v22l-1 10v9l4 10v11l-5 10-9 6-9 1-9-3-7-6-3-7v-12l4-8 6-7 4-16v-20l-3-14-6-15-10-16-11-14-10-13-7-10-9-19-4-13-3-16-1-10-1-22v-31l2-21 4-6z" fill="#1CA3F8"/>
<path transform="translate(559,443)" d="m0 0h11l22 5 10 3v1l-8-1 1 5h-3l-3 1v3h2l-1 8-3 1 1 4-3 4-2 5-3 1h2l1 9-2 6h5l-1 3-4 1 1 3-3 1 1 1 3-1v3l-3 3 3-1v5l1 2-6-2v3l2 1-1 2h-3l-1 5 3 2 1 1 1-4 1 4-2 4-2 1 1 5-3 3h-3l-1 2h2l-1 4 2 3v5l3 1-1 5-1-4-5 1h4v3h-4l1 1h3l1 4h-6l1 9 3-3 2 6v2l-2 4-2 1v-2h-2l4 8 4 1-1 4-5 5v2h-3l-2 4 5-1-2 8h-3v4l3 1v2l1 3h-3l-2 1 3 4h2l1 4-3 1-1 2 2 2-4 2 2 1v2l3 1-2 2h-3v4l-1 1 1 2-2 2 1 2h-2v2l5 1v2h-2l-1 4-2 2 6 5 2 3h-3-1l-1 3v3 5l4 1 1 3-2 1h-1v2h-2l1 3-1 6 3 1-1 4-6 3 6-2-1 3 2 4h-2l-1 5-2 1 22-4-1 2-26 6-12 2-14-1 4-2v-1l-2-1 5-2 3 3v-3l-3-6-4-1v-5h3l1 3 2 1-1-4-2-2 1-3-1-2h2v-6l-2-4 2-3h-3l-1-5h2v-2h2l1-4-3-1 1-5 2-1-2-3-2-1 1-9 3-5-2-1v-10l-1-2 2-2-1-4-2-1h2l-1-3 3-1-3-4 3-1h-1v-6h-3l1-3h2l1-12h2v-2l-3-1 3-2v-6l-1-6 2-4 1-1-1-3-2-4 5-5-2-5 1-1v-4l1-3 1-4h2v-5l-3 1 1-4 3 2-1-6 3-6-3 1-1-4 1-3-1-4 4-2h-3v-7h3v-2l-2-1 3-2-3-9 1-2 2 1v-2l-2-1 2-5-2-1 3-3-1-3 2-1-1-2h2l1-7v-4-3l1-5 2-9h2l-3-9zm-24 274 2 1-4 3z" fill="#1C91F5"/>
<path transform="translate(672,747)" d="m0 0 9 1 6 4 1 42 2 14 5 16 7 15 8 11 9 10 21 21 8 11 8 16 3 9 2 14v14l-1 10v9l3 6v11l-4 8-6 5-5 2h-9l-6-3-4-4-3-6v-13l3-6 5-4 2-8v-23l-2-8-4-9-4-8-6-8-4-3v-2l-3-1-5-6-4-3v-2l-4-2v-2l-4-2v-2l-3-1-11-14-6-10-6-15-4-13-2-16-1-15v-32l3-5z" fill="#18BDFC"/>
<path transform="translate(345,748)" d="m0 0h9l6 4 2 4v45l-2 16-4 16-10 21-11 14-9 10-11 11-8 7-8 11-7 14-3 13v17l2 9 5 5 3 6v11l-3 7-7 6-4 1h-8l-7-3-5-4-3-7v-13l4-6-1-11v-26l5-17 8-16 8-11h2l2-4 23-23 9-11 8-16 3-9 3-14 1-7 1-44 5-5z" fill="#4261F8"/>
<path transform="translate(619,460)" d="m0 0 11 2 17 8 7 4-3 1-2-1v2l-2 2-2 1-2 7v2l1 2-1 2 2 1h-2l-1 3-3 3 2 5-1 1-2 4-2 3v3l1 1 1-3 2 4h-2l-1 5-1 2h-5l1 3 1 4h3l-1 4-1 2 2 1v3h2l-1 3-2-1v-4l-5 2v2h2l1 3h-2l-2 6 2 1v-4l3 1-1 4 2 1-3 2 3 2-3 2-4 5 2 4v3l1 2 1 7h-4v2h-3l1 6-2 2h4l2-3 1 2-1 3 4-1-2 5h-3l-4 1-1 3 2 1 2-4 2 1-1 5-3 2h-3l-1 2 5-1v2l4 2v2l-5 1 2 4 1 6v2l1 3-4 1-4 2 3 1-4 4 1 1 1-2 2 1-1 3-2 2 2 1 2 6-1 3-3 1 3 3v3l-3 2-1 3 4-1 1 2 2 1-4 1 1 3-1 3h4v4l-3 1-1 4-3-2-1 6 2 2h4l2 1-1 5-2 3 4-2 1 2-2 2 4 2v4h12v1l-23 4-8 2-8 1-10 2 4-3h2v-3l-4-1v-2h3l-2-4-3 1 1-4 2-3-1-3 1-2-2-1-1-4 4 1v-2l-4-1 2-1v-3l-2-1 3-2v-3-3l-1-5v-3l-2-4 2-1v-2l-3-1h2l-1-3 2-1-2-5 4-3-1-1 1-4h-2l-1-3 5-5-1-2 2-4h-2v-2l-2-1 2-4v-2l-2-2 3-1-1-2 1-1v-4l-1-2 2-1v-2h2l-1-3 1-1-2-2 2-1 1-3-3-1 1-1-2-1 1-2 1-4-2-3v-2l1-3h2l-2-2v-4l2-1-3-5 1-2h3l-3-3 2-3 1-4h2l-1-4 2-8-5-1 2-4 7-2-1-4-4 2v-7h2l-1-4 3-6 2-5v-9l-2 1v-3h2v-3h2l-1-1-1-4 4-5-2-3h2l1-3v2h3l-3-4 1-4v-2l3-1-3-3zm11 108m-4 17m0 84h6l-1 6-3-1v-4z" fill="#18A5F8"/>
<path transform="translate(747,573)" d="m0 0h3l6 12 8 17 8 25 5 23 3 17 2 22v32l-3 12-6 5-2 1h-10l-16-7-13-7-1-3 4-2 1-3-2-1 4-2v-7l4-4-1-3h-2l-1-4 2-3-3-1-3-6 1-3 4 1 1 2v-3l-3-1 1-3v2l7 1-1-1-1-2h2v-2l-2-1 1-2-4 1 1-3-3-1h2v-3l3-1 3 1-2-5-2-4 1-1-4-3 4-4 2 2v-5l5-2-2-5 2-2 2-1-2-4-5 1v-2l-3-1v-2l5-2 2-2h3l1-2-1-1 1-4h4l-3-2 2-4 1-1-1-4-1 2h-2l-1-4 5-2v-4l-3 1-1-3h-2v-2h2l2-4v-3h-2l1 4-4-1-1-3-2-2 2-1-1-6-2-2z" fill="#25D5FD"/>
<path transform="translate(631,910)" d="m0 0 9 9 3 2 5 9 7 11 9 21 4 16 1 7v22l-1 10v9l4 10v11l-5 10-9 6-9 1-9-3-7-6-3-7v-12l4-8 6-7 4-16v-20l-3-14-6-15-5-8-1-4-2-5 6 6-2-5v-4l-2-5 2-2h1l-1-2h3l-1-2h-3v-8l2-2-1-1-3 1v-4z" fill="#1ABCFC"/>
<path transform="translate(732,876)" d="m0 0 5 2 10 12 8 15 4 12 2 14v14l-1 10v9l3 6v11l-4 8-6 5-5 2h-9l-6-3-4-4-3-6v-13l3-6 5-4 2-8v-23l-2-8-4-9-4-10-1-5h-3l-3-5h2v-2l3-1 1 4 1-5 1-4 2-6h2z" fill="#27D4FD"/>
<path transform="translate(510,770)" d="m0 0 9 1 5 5 2 4v259l1 4-3-2-1-230-1-28-2-2-1-3h-2l-1 4 3 1-3 1 1 5h-6l1 5v3l3 3-3 1 4 2v3l-2 2-3 1-1 2 2 1-4 1 3 1h-2v5l-4 1-2-2-1 222-3 2 1-3v-256l2-7 4-4z" fill="#578EF8"/>
<path transform="translate(695,831)" d="m0 0h3l5 10 11 14 21 21-4 3-2 2-2 6v6h-2l-2-3h-2v4l5 3 2 9-8-10-4-3v-2l-3-1-5-6-4-3v-2l-4-2v-2l-4-2v-2l-3-1-4-5-2-6 5-2 3-6-2-1 2-3h3l-2-2-1-4v-3l-4-3h2z" fill="#1CC8FD"/>
<path transform="translate(516,776)" d="m0 0 4 2 2 3h1l1 30v61h-3l1-3-2-2v5l-5-3v-3l-3-1-2 2v-4l3-7 1 2h2l-1-4h2v-2l-3-1h-2l-2 2-1-5h-3l3-3 7 1 6-1v-3l-1 1-3 2-2-1v-3l-2 3h-4l-1-5-2-1 4-6 3 1v-2l-3-1-1-5 3-1-4-3-7 2v-7l4 3 2-2v-4l1-2 2-3 2-1 2-4-4-2 1-2-2-2 2-2-2-3 1-3h6v-2l-2-1 3-3-2-1z" fill="#1D8FF5"/>
<path transform="translate(364,986)" d="m0 0 3 1 1 5 2 1v8l-1 4 1 7-1 6 2 3h-2l1 4 3 2-1 4 3 9-1 1-1 6v2l2 1h-3l2 6-1 3 2 1-5 2-7-2-7-6-2-5v-14l3-6 2-1v-11l-1-7v-20l2 3 4-5-2-1z" fill="#2B6DF2"/>
<path transform="translate(615,883)" d="m0 0 3 4 10 15 4 5 8 11-1 2-7-9-4 2 3 1 1-2 1 5-2 1-1 7 4-1v3l-2 1 2 1-1 3v-2l-3 1 1 5 2 1-1 6 4 1-4 2-3-4 2 4-2 1-7-11-13-16-4-8v-3l5-1 1-4 2-1-1-2h2v-2l-2-1-3-3-3 1 2-6 1-2h2v-2h2l1-2z" fill="#1CADFB"/>
<path transform="translate(516,776)" d="m0 0 4 2 2 3h1v30l-4-1-2 3-1-1-4 4-1 3 2 2h-6l-5 2v-7l4 3 2-2v-4l1-2 2-3 2-1 2-4-4-2 1-2-2-2 2-2-2-3 1-3h6v-2l-2-1 3-3-2-1z" fill="#1E8DF5"/>
<path transform="translate(364,962)" d="m0 0 5 2 1 3h-2v6l-4 4 4 1 2 2-3 2v3l-3 3-2 4-3 2v16l1 7v11h-3v-13l-1-11v-15l3-17 3-9z" fill="#4479F4"/>
<path transform="translate(496,438)" d="m0 0h32l22 2 18 3v1l-14-1-20-2h-45l-19 2h-6l2-2z" fill="#4379F7"/>
<path transform="translate(364,986)" d="m0 0 3 1 1 5 2 1v8l-6 5h-2v2h-4v-18l2 3 4-5-2-1z" fill="#286DF2"/>
<path transform="translate(518,809)" d="m0 0 4 1 2 1v19l-1-2-6-1 2-4 3-2-5 1-1 2-4-1-2-2 2-6 3-2-1-2 4-1z" fill="#1C90F5"/>
<path transform="translate(370,551)" d="m0 0 3 1v3l-2-1 2 6-3-1 2 2 2 1-2 6-2 2-1-1-1 2h3l2 5-3 1-1 2-1-4-1 2-4-5v-2l2-1v-4l-3-4 3-2v-3z" fill="#3165F4"/>
<path transform="translate(660,633)" d="m0 0 3 1-2 3 1 4 2 2-2 2 7 1 1 2h-3l-2 2h-2v-3l-1 4 1 4-9-1-2-4 1-4 3-1-3-9 2-1 3-1 2 1z" fill="#16B5FC"/>
<path transform="translate(747,573)" d="m0 0h3l6 12 5 11v2h-3l-1 4v-2l-3 1-1-3h-2v-2h2l2-4v-3h-2l1 4-4-1-1-3-2-2 2-1-1-6-2-2z" fill="#27D2FD"/>
<path transform="translate(584,490)" d="m0 0 6 1 1 6-2 2 2 2-3 1 2 2h-2v3h-2l1 3-7 2 1-3h2v-3l-3 3-2-1 1-3 2-1-1-3 5-1 1-2-4-1 1-3 1 2 2-4z" fill="#1A94F5"/>
<path transform="translate(522,927)" d="m0 0h2v41l-2 3-1-3 1-3h-2l1-10-1-4 1-1-3-3 2-1v-3h2l-1-8-1-2h2z" fill="#1C90F5"/>
<path transform="translate(521,896)" d="m0 0h3v27l-4-3-1-4 2-5h-2l-1-5 3-1-3-3 2-5z" fill="#1C90F5"/>
<path transform="translate(666,545)" d="m0 0 3 1-1 1v5l2 1h-2l1 3h-2l-1 4v3l-4-4h-2l-3-2-2 2-1-4 2-2 3 1 5-5z" fill="#16B3FC"/>
<path transform="translate(523,873)" d="m0 0h1v19h-2v-5l-4 4 2 1-3 1-1-5v-4l1-5-3-1 6-1v2h-2l2 2 1-4z" fill="#1C90F5"/>
<path transform="translate(516,776)" d="m0 0 4 2 2 3h1v16l-3-1v-3l-1-4-4-3 3-3-2-1z" fill="#208AF5"/>
<path transform="translate(521,773)" d="m0 0 4 4 1 3v12h-1l-1 19h-1l-1-28-2-2-2-5z" fill="#46A4F8"/>
<path transform="translate(610,873)" d="m0 0 2 3 3 5-1 4-3 1-1-2-2 3-2-5v-3l2-5z" fill="#1FA7FA"/>
<path transform="translate(393,1049)" d="m0 0 2 1-6 9-7 4-4 1h-7l-7-3-1-2 7 2h9l8-4 4-5z" fill="#738DFA"/>
<path transform="translate(752,612)" d="m0 0h3v5l2-1v3h-4zm-3 5 4 2-1 4 3-1-1 3-1 2h-4l-2-3-2-2v-2l4-1z" fill="#1CCFFE"/>
<path transform="translate(655,673)" d="m0 0 5 2v3h-2l-1 2 1 4-6 1v-2l-2-1h3l-4-2z" fill="#16B6FC"/>
<path transform="translate(519,855)" d="m0 0m-6 1 1 2 4-1 2 5-2 5-6-2-2 2v-4z" fill="#1E8DF5"/>
<path transform="translate(669,500)" d="m0 0 4 1 1 3-4 1 3 3 2-1v2l2 1-3 4-2-1h-2v-3h-2l-3-4 2-1z" fill="#16B3FC"/>
<path transform="translate(572,574)" d="m0 0 2 3 1 3v2l-2 4-2 1v-2l-4 1-2-6h5z" fill="#1A94F5"/>
<path transform="translate(659,693)" d="m0 0 4 2 1 2-1 1 2 2h-5l-2 4h-2l-1-7zm-2 4 1 2z" fill="#16B3FC"/>
<path transform="translate(632,464)" d="m0 0 5 1 17 9-3 1-2-1v2l-3 1-2-2v-5l-6-2-6-3z" fill="#45A2F8"/>
<path transform="translate(637,567)" d="m0 0 2 3-7 7-2-3-2 1 1-5 2-2h5z" fill="#17AAFA"/>
<path transform="translate(519,866)" d="m0 0 3 1v3l-1 2 3 1-2 5-1 4-3 1v-4h2v-3l-5-1 4-3z" fill="#1F8BF5"/>
<path transform="translate(520,831)" d="m0 0 3 3 1-2v15l-2-4-3-3 1-3-2-1 1-4z" fill="#1B92F5"/>
<path transform="translate(519,821)" d="m0 0h3l-1 2-4 4 2 1 1 3h-3l-3-2v2l-3-1-1-5 4-1z" fill="#1F8CF5"/>
<path transform="translate(621,679)" d="m0 0 3 3 2-1 2 2-2 5-5 2-2-4z" fill="#17AAFA"/>
<path transform="translate(335,502)" d="m0 0m-1 1v3l-13 12-7 7v-3l17-17z" fill="#768EF9"/>
<path transform="translate(759,927)" d="m0 0 2 4v14l-1 5h-1l-1-9v-11z" fill="#20C5FD"/>
<path transform="translate(590,448)" d="m0 0 12 3v1l-8-1 1 4-6-1v-3l-1 2h-2l-1-4z" fill="#2B95F5"/>
<path transform="translate(704,629)" d="m0 0 2 1-1 5v3l-5 3-3-1 1-4h2l1-3z" fill="#16C1FD"/>
<path transform="translate(699,622)" d="m0 0h2l2 3 2 1-1 4-4 6-1-3-2-1 3-5-2-2z" fill="#17C8FD"/>
<path transform="translate(370,551)" d="m0 0 3 1v3l-2-1 2 6-3-1-1 2-3-3-2 1 2-4z" fill="#3463F5"/>
<path transform="translate(688,811)" d="m0 0h3l4 13v2h-2v-2h-2l-1-6-2-1 1-2-3-1h2z" fill="#3CC3FB"/>
<path transform="translate(375,473)" d="m0 0 2 1-7 5-1 3 2 1-4 2h-3l-2-2 5-5z" fill="#426DF6"/>
<path transform="translate(358,990)" d="m0 0h1l1 8 4 8h-2v2h-4z" fill="#2180F3"/>
<path transform="translate(735,698)" d="m0 0h4v2h2l1-2 1 5-3 4-4-1z" fill="#1DCFFE"/>
<path transform="translate(657,692)" d="m0 0h2l-1 3-3 4 2 1h-2l-1 4h-2l-1-5v-3h3z" fill="#16BBFC"/>
<path transform="translate(626,901)" d="m0 0 5 4 4 6 5 7-1 2-7-9-3-1z" fill="#419CF7"/>
<path transform="translate(600,595)" d="m0 0 5 2-1 4h-2v2l2 1h-5l-2-4 1-3h2z" fill="#189DF6"/>
<path transform="translate(520,796)" d="m0 0 3 1v6l-6-1-2 1-4-2 1-2 7 1-3-2z" fill="#1C8FF5"/>
<path transform="translate(774,642)" d="m0 0 2 3 3 15-1 5h-1l-2-12-1-5z" fill="#33CAFD"/>
<path transform="translate(747,573)" d="m0 0h3l6 12-2 2-3-6v-2l-4 1-1-2z" fill="#38CCFD"/>
<path transform="translate(366,569)" d="m0 0h2v2h3l2 5-3 1-1 2-1-4-1 2-2-5z" fill="#3463F5"/>
<path transform="translate(631,523)" d="m0 0 7 1 1 4-3-1v3l-4 3v-5l-2-1z" fill="#17AAFA"/>
<path transform="translate(741,661)" d="m0 0 5 3v4l-9 1v-4h3z" fill="#1ED0FE"/>
<path transform="translate(654,663)" d="m0 0 4 2 3 1-4 3 1 2-4 1-2-1v-6h2z" fill="#16B5FC"/>
<path transform="translate(360,639)" d="m0 0h6l-2 5-4 1 1 3-5 1 1-4h2z" fill="#3364F5"/>
<path transform="translate(628,585)" d="m0 0h2l1 4h-2l-1 4-3 1-2-2 2-3 1-3z" fill="#17AAFA"/>
<path transform="translate(368,502)" d="m0 0 5 2v3 3l-5 1-1-5-1-2z" fill="#3861F6"/>
<path transform="translate(600,825)" d="m0 0 2 1 1 8h1v8h-3l-1-9z" fill="#24B0FA"/>
<path transform="translate(563,656)" d="m0 0h6l2 6-5-1-1 2-3-2z" fill="#1A95F5"/>
<path transform="translate(717,891)" d="m0 0 1 2 8 4 2 9-8-10-4-4z" fill="#47C6FB"/>
<path transform="translate(517,787)" d="m0 0 4 2h-2l1 3 2 1-2 3-6-1 1-2 1-1-1-3h2z" fill="#1C8FF5"/>
<path transform="translate(581,500)" d="m0 0h5l1 6-3-1-4 4-2-1 1-3 2-1-1-3z" fill="#1999F5"/>
<path transform="translate(641,494)" d="m0 0 1 2 3 1 1 4-6 1-2-5z" fill="#17AAFA"/>
<path transform="translate(516,776)" d="m0 0 4 2 1 6-4 3-2-1 3-3-2-1z" fill="#1D8EF5"/>
<path transform="translate(360,624)" d="m0 0h3l6 1-1 3-5 2v-2l-4-1z" fill="#3364F5"/>
<path transform="translate(660,552)" d="m0 0 4 4-3 3-4-2-2 2-1-4 2-2 3 1z" fill="#16B9FC"/>
<path transform="translate(626,669)" d="m0 0h6l-1 6-3-1v-4zm0 5h2v4l-5 1 2-4z" fill="#17A9FA"/>
<path transform="translate(622,631)" d="m0 0h6l1 3-4 1-3-2zm2 4 3 1-1 2-3-1-2 4-1-3z" fill="#17ACFB"/>
<path transform="translate(752,612)" d="m0 0h3v5l2-1v3h-4zm-3 5 4 2-3 3z" fill="#20D2FE"/>
<path transform="translate(606,532)" d="m0 0h5v5l-5 1-3-1 2-4z" fill="#18A0F7"/>
<path transform="translate(760,969)" d="m0 0 3 1v11l-2 3-1-3z" fill="#34C9FD"/>
<path transform="translate(625,608)" d="m0 0h2v2l4 2v2l-7 1-1-6z" fill="#17A8F9"/>
<path transform="translate(521,485)" d="m0 0h2l2 5-2 3h-5l2-4-2-2z" fill="#2185F4"/>
<path transform="translate(535,711)" d="m0 0h3l3 5-1 3-1-2-4-1zm0 6 2 1-4 3z" fill="#1E8DF5"/>
<path transform="translate(743,675)" d="m0 0m-3 1 5 1-1 3 2 1-1 3v-2h-5l-1-3z" fill="#1ED0FE"/>
<path transform="translate(671,606)" d="m0 0 1 3-4 4-5-1 2-4h6z" fill="#16B6FC"/>
<path transform="translate(531,1051)" d="m0 0 2 3 1 9-3 1-3-2 1-2 3-4-2-1z" fill="#1D8DF4"/>
<path transform="translate(528,1046)" d="m0 0h4l2 5v10h-1l-2-11-4-2z" fill="#467FF7"/>
<path transform="translate(520,883)" d="m0 0 2 1-2 6v1l-3 2-1-5v-2h2v-2z" fill="#1D8EF5"/>
<path transform="translate(669,500)" d="m0 0 4 1 1 3-5 2-2 2-2-2 2-1z" fill="#16B7FC"/>
<path transform="translate(668,486)" d="m0 0 7 2 6 4-3 1-8-4z" fill="#31B2F9"/>
<path transform="translate(623,659)" d="m0 0h5l1 5-3 1-1-2-3 1z" fill="#17ABFA"/>
<path transform="translate(572,614)" d="m0 0 1 2-2 1v3h-5l-1-4z" fill="#1A96F5"/>
<path transform="translate(359,611)" d="m0 0m-2 1h2v2l4 2-1 4-4-2-1-3z" fill="#2E67F3"/>
<path transform="translate(568,567)" d="m0 0h5l1 4-5 2-1-1z" fill="#1A95F5"/>
<path transform="translate(362,964)" d="m0 0 2 1v7l-5 1z" fill="#467EF5"/>
<path transform="translate(679,848)" d="m0 0 4 5 4 3-2 4-6-9z" fill="#4FBBF9"/>
<path transform="translate(509,836)" d="m0 0 4 3 3 1-2 4h-4l-1-5-2-1z" fill="#1C91F5"/>
<path transform="translate(738,648)" d="m0 0h5v2h3l-1 4-3-2-4-1z" fill="#1ED0FE"/>
<path transform="translate(617,483)" d="m0 0 4 1v3l-3 2h-3l1-5z" fill="#189FF7"/>
</svg>
